<svg xmlns="http://www.w3.org/2000/svg" width="64" height="64" viewBox="0 0 64 64">
  <g fill="none" stroke="#000" stroke-width="4.5" stroke-linecap="round" stroke-linejoin="round">
    <path d="M24 16 18 8" />
    <path d="M40 16 46 8" />
    <rect x="7.5" y="17" width="49" height="38" rx="12" />
  </g>
  <path fill="#000" d="M32 24c-5.2 0-8.6 4.1-8.6 10.3v2.3c0 2-.7 3.8-2 5.3l-1.7 2c-1.1 1.3-.2 3.2 1.5 3.2h21.6c1.7 0 2.6-1.9 1.5-3.2l-1.7-2c-1.3-1.5-2-3.3-2-5.3v-2.3C40.6 28.1 37.2 24 32 24Z" />
  <circle cx="32" cy="22.2" r="2.4" fill="#000" />
  <path fill="#000" d="M27.8 49.5c.8 2.2 2.3 3.5 4.2 3.5s3.4-1.3 4.2-3.5h-8.4Z" />
</svg>
