<svg xmlns="http://www.w3.org/2000/svg" width="64" height="64" viewBox="0 0 64 64">
  <rect x="6" y="6" width="52" height="52" rx="14" fill="#00AEEF" />
  <g fill="none" stroke="#fff" stroke-width="4.2" stroke-linecap="round" stroke-linejoin="round">
    <path d="M24 18.5 19 13" />
    <path d="M40 18.5 45 13" />
    <rect x="13" y="20" width="38" height="33" rx="8.5" />
  </g>
  <path fill="#fff" d="M32 27c-4.4 0-7.2 3.4-7.2 8.8v2c0 1.7-.6 3.2-1.7 4.5l-1.4 1.6c-.9 1.1-.2 2.8 1.3 2.8h18c1.5 0 2.2-1.7 1.3-2.8l-1.4-1.6c-1.1-1.3-1.7-2.8-1.7-4.5v-2c0-5.4-2.8-8.8-7.2-8.8Z" />
  <circle cx="32" cy="25.5" r="2" fill="#fff" />
  <path fill="#fff" d="M28.4 48.3c.7 2 2 3.1 3.6 3.1s2.9-1.1 3.6-3.1h-7.2Z" />
</svg>
