<svg xmlns="http://www.w3.org/2000/svg" width="32" height="32" viewBox="0 0 32 32" role="img" aria-label="Bilibili Notify tray icon">
  <rect x="2" y="2" width="28" height="28" rx="8" fill="#00AEEF"/>
  <circle cx="16" cy="8.9" r="2.15" fill="#fff"/>
  <path fill="#fff" d="M16 10.4c-3.8 0-6.6 3.3-6.6 8v2.2c0 1.4-.7 2.5-2 3.6-.4.3-.2 1.1.4 1.1h16.4c.6 0 .8-.8.4-1.1-1.3-1.1-2-2.2-2-3.6v-2.2c0-4.7-2.8-8-6.6-8Z"/>
  <path fill="#fff" d="M13.1 26.4h5.8c-.4 1.45-1.55 2.4-2.9 2.4s-2.5-.95-2.9-2.4Z"/>
</svg>
